<svg width="24" height="163" viewBox="0 0 24 163" fill="none" xmlns="http://www.w3.org/2000/svg">
<g clip-path="url(#clip0_49_243)">
<path fill-rule="evenodd" clip-rule="evenodd" d="M12.0099 139C5.36875 139 0 144.408 0 151.099C0 156.448 3.43994 160.975 8.21205 162.577C8.80869 162.698 9.02724 162.317 9.02724 161.996C9.02724 161.716 9.00757 160.755 9.00757 159.753C5.6667 160.474 4.97099 158.31 4.97099 158.31C4.43409 156.908 3.63858 156.548 3.63858 156.548C2.54511 155.807 3.71823 155.807 3.71823 155.807C4.93117 155.887 5.56763 157.049 5.56763 157.049C6.64118 158.891 8.37111 158.371 9.06706 158.05C9.16638 157.269 9.48473 156.728 9.82275 156.428C7.15817 156.147 4.35469 155.106 4.35469 150.458C4.35469 149.136 4.8316 148.054 5.58729 147.213C5.46807 146.913 5.0504 145.67 5.70677 144.008C5.70677 144.008 6.72083 143.687 9.00732 145.25C9.98625 144.985 10.9958 144.85 12.0099 144.849C13.024 144.849 14.0577 144.989 15.0123 145.25C17.299 143.687 18.3131 144.008 18.3131 144.008C18.9695 145.67 18.5515 146.913 18.4323 147.213C19.2079 148.054 19.6652 149.136 19.6652 150.458C19.6652 155.106 16.8617 156.127 14.1772 156.428C14.6148 156.808 14.9924 157.529 14.9924 158.671C14.9924 160.294 14.9727 161.596 14.9727 161.996C14.9727 162.317 15.1915 162.698 15.7879 162.577C20.56 160.975 23.9999 156.448 23.9999 151.099C24.0196 144.408 18.6312 139 12.0099 139Z" fill="black"/>
</g>
<path d="M22.2234 96H1.77187C0.792187 96 0 96.7734 0 97.7297V118.266C0 119.222 0.792187 120 1.77187 120H22.2234C23.2031 120 24 119.222 24 118.27V97.7297C24 96.7734 23.2031 96 22.2234 96ZM7.12031 116.452H3.55781V104.995H7.12031V116.452ZM5.33906 103.434C4.19531 103.434 3.27188 102.511 3.27188 101.372C3.27188 100.233 4.19531 99.3094 5.33906 99.3094C6.47813 99.3094 7.40156 100.233 7.40156 101.372C7.40156 102.506 6.47813 103.434 5.33906 103.434ZM20.4516 116.452H16.8937V110.883C16.8937 109.556 16.8703 107.845 15.0422 107.845C13.1906 107.845 12.9094 109.294 12.9094 110.789V116.452H9.35625V104.995H12.7687V106.561H12.8156C13.2891 105.661 14.4516 104.709 16.1813 104.709C19.7859 104.709 20.4516 107.081 20.4516 110.166V116.452V116.452Z" fill="black"/>
<g clip-path="url(#clip1_49_243)">
<path d="M12 45.1609C15.2063 45.1609 15.5859 45.175 16.8469 45.2312C18.0188 45.2828 18.6516 45.4797 19.0734 45.6438C19.6313 45.8594 20.0344 46.1219 20.4516 46.5391C20.8734 46.9609 21.1313 47.3594 21.3469 47.9172C21.5109 48.3391 21.7078 48.9766 21.7594 50.1437C21.8156 51.4094 21.8297 51.7891 21.8297 54.9906C21.8297 58.1969 21.8156 58.5766 21.7594 59.8375C21.7078 61.0094 21.5109 61.6422 21.3469 62.0641C21.1313 62.6219 20.8688 63.025 20.4516 63.4422C20.0297 63.8641 19.6313 64.1219 19.0734 64.3375C18.6516 64.5016 18.0141 64.6984 16.8469 64.75C15.5813 64.8063 15.2016 64.8203 12 64.8203C8.79375 64.8203 8.41406 64.8063 7.15313 64.75C5.98125 64.6984 5.34844 64.5016 4.92656 64.3375C4.36875 64.1219 3.96563 63.8594 3.54844 63.4422C3.12656 63.0203 2.86875 62.6219 2.65313 62.0641C2.48906 61.6422 2.29219 61.0047 2.24063 59.8375C2.18438 58.5719 2.17031 58.1922 2.17031 54.9906C2.17031 51.7844 2.18438 51.4047 2.24063 50.1437C2.29219 48.9719 2.48906 48.3391 2.65313 47.9172C2.86875 47.3594 3.13125 46.9562 3.54844 46.5391C3.97031 46.1172 4.36875 45.8594 4.92656 45.6438C5.34844 45.4797 5.98594 45.2828 7.15313 45.2312C8.41406 45.175 8.79375 45.1609 12 45.1609ZM12 43C8.74219 43 8.33438 43.0141 7.05469 43.0703C5.77969 43.1266 4.90313 43.3328 4.14375 43.6281C3.35156 43.9375 2.68125 44.3453 2.01563 45.0156C1.34531 45.6812 0.9375 46.3516 0.628125 47.1391C0.332812 47.9031 0.126563 48.775 0.0703125 50.05C0.0140625 51.3344 0 51.7422 0 55C0 58.2578 0.0140625 58.6656 0.0703125 59.9453C0.126563 61.2203 0.332812 62.0969 0.628125 62.8563C0.9375 63.6484 1.34531 64.3188 2.01563 64.9844C2.68125 65.65 3.35156 66.0625 4.13906 66.3672C4.90313 66.6625 5.775 66.8687 7.05 66.925C8.32969 66.9812 8.7375 66.9953 11.9953 66.9953C15.2531 66.9953 15.6609 66.9812 16.9406 66.925C18.2156 66.8687 19.0922 66.6625 19.8516 66.3672C20.6391 66.0625 21.3094 65.65 21.975 64.9844C22.6406 64.3188 23.0531 63.6484 23.3578 62.8609C23.6531 62.0969 23.8594 61.225 23.9156 59.95C23.9719 58.6703 23.9859 58.2625 23.9859 55.0047C23.9859 51.7469 23.9719 51.3391 23.9156 50.0594C23.8594 48.7844 23.6531 47.9078 23.3578 47.1484C23.0625 46.3516 22.6547 45.6812 21.9844 45.0156C21.3188 44.35 20.6484 43.9375 19.8609 43.6328C19.0969 43.3375 18.225 43.1313 16.95 43.075C15.6656 43.0141 15.2578 43 12 43Z" fill="black"/>
<path d="M12 48.8359C8.59688 48.8359 5.83594 51.5969 5.83594 55C5.83594 58.4031 8.59688 61.1641 12 61.1641C15.4031 61.1641 18.1641 58.4031 18.1641 55C18.1641 51.5969 15.4031 48.8359 12 48.8359ZM12 58.9984C9.79219 58.9984 8.00156 57.2078 8.00156 55C8.00156 52.7922 9.79219 51.0016 12 51.0016C14.2078 51.0016 15.9984 52.7922 15.9984 55C15.9984 57.2078 14.2078 58.9984 12 58.9984Z" fill="black"/>
<path d="M19.8469 48.5914C19.8469 49.3883 19.2 50.0305 18.4078 50.0305C17.6109 50.0305 16.9688 49.3836 16.9688 48.5914C16.9688 47.7945 17.6156 47.1523 18.4078 47.1523C19.2 47.1523 19.8469 47.7992 19.8469 48.5914Z" fill="black"/>
</g>
<path d="M18.3263 1.9043H21.6998L14.3297 10.3278L23 21.7903H16.2112L10.894 14.8383L4.80995 21.7903H1.43443L9.31743 12.7804L1 1.9043H7.96111L12.7674 8.25863L18.3263 1.9043ZM17.1423 19.7711H19.0116L6.94539 3.81743H4.93946L17.1423 19.7711Z" fill="black"/>
<defs>
<clipPath id="clip0_49_243">
<rect width="24" height="24" fill="white" transform="translate(0 139)"/>
</clipPath>
<clipPath id="clip1_49_243">
<rect width="24" height="24" fill="white" transform="translate(0 43)"/>
</clipPath>
</defs>
</svg>
